<?xml version='1.0' encoding='utf-8'?>
<!DOCTYPE svg PUBLIC '-//W3C//DTD SVG 1.1//EN' 'http://www.w3.org/Graphics/SVG/1.1/DTD/svg11.dtd'>
<svg version="1.1" xmlns="http://www.w3.org/2000/svg" viewBox="0 0 512 512" xmlns:xlink="http://www.w3.org/1999/xlink" enable-background="new 0 0 512 512">
  <g>
    <g>
      <path d="m480.6,299.4h-54.5c15.2-27.7 23.8-59.6 23.8-93.4 0-28.7-6.2-55.9-17.3-80.4 2.8-0.4 4.4-0.6 4.5-0.6 11.2-0.8 19.7-10.6 18.9-21.9-0.8-11.3-10.8-19.8-21.9-18.9-1.1,0.1-10.4,0.9-23.5,4.3-35.6-47-92-77.5-155.4-77.5-106.5,0-193.4,86.2-194.6,192.7h-29.2c-11.3,0-20.4,9.1-20.4,20.4 0,11.3 9.1,20.4 20.4,20.4h32.9c18,89.2 96.7,156.5 190.9,156.5 55.5,0 105.6-23.4 141.1-60.8h84.2c11.3,0 20.4-9.1 20.4-20.4 0.1-11.3-9-20.4-20.3-20.4zm-103,0h-165.4c-11.3,0-20.4,9.1-20.4,20.4 0,11.3 9.1,20.4 20.4,20.4h118.7c-22.4,12.7-48.2,20-75.7,20-71.6,0-131.9-49.2-149-115.7h171.4c11.3,0 20.4-9.1 20.4-20.4 0-11.3-9.1-20.4-20.4-20.4h-176.2c1.2-83.9 69.8-151.9 153.8-151.9 46.3,0 88,20.6 116.2,53.2-10.7,6.4-21.2,14.8-30.4,25.8-34.9-41.7-90.2-46.3-93-46.5-11.1-0.9-21,7.6-21.9,18.9-0.8,11.2 7.6,21 18.9,21.9 0.6,0 57,5.3 76.8,52.4 4,9.5 14.7,13 19.3,13 8,0 15.9-4.4 19.3-13 7.4-18.3 20.4-30.2 33.6-38.1 9.7,20.2 15.1,42.8 15.1,66.6-1.13687e-13,35.1-11.8,67.4-31.5,93.4z"/>
      <path d="m303.7,460.2h-206c-11.3,0-20.4,9.1-20.4,20.4 0,11.3 9.1,20.4 20.4,20.4h206c11.3,0 20.4-9.1 20.4-20.4 5.68434e-14-11.3-9.1-20.4-20.4-20.4z"/>
    </g>
  </g>
</svg>
